<svg xmlns="http://www.w3.org/2000/svg" viewBox="0 0 30 30"><title>Instagram</title><path d="M15,2.69a46.05,46.05,0,0,1,6,.17,7.56,7.56,0,0,1,2.82.5,5.83,5.83,0,0,1,2.83,2.82A7.86,7.86,0,0,1,27.14,9c0,1.5.17,2,.17,6a46.05,46.05,0,0,1-.17,6,7.56,7.56,0,0,1-.5,2.82,5.83,5.83,0,0,1-2.82,2.83,7.86,7.86,0,0,1-2.83.5c-1.5,0-2,.17-6,.17a46.05,46.05,0,0,1-6-.17,7.77,7.77,0,0,1-2.82-.5,5.81,5.81,0,0,1-2.83-2.83A7.77,7.77,0,0,1,2.86,21c0-1.5-.17-2-.17-6a46.05,46.05,0,0,1,.17-6,7.77,7.77,0,0,1,.5-2.82A6,6,0,0,1,4.52,4.52,2.84,2.84,0,0,1,6.19,3.36,7.77,7.77,0,0,1,9,2.86a46.05,46.05,0,0,1,6-.17M15,0A48.54,48.54,0,0,0,8.85.2,10.17,10.17,0,0,0,5.19.86,6.4,6.4,0,0,0,2.53,2.53,6.4,6.4,0,0,0,.86,5.19,7.53,7.53,0,0,0,.2,8.85,48.54,48.54,0,0,0,0,15,48.54,48.54,0,0,0,.2,21.15a10.17,10.17,0,0,0,.66,3.66,6.4,6.4,0,0,0,1.67,2.66,6.4,6.4,0,0,0,2.66,1.67,10.39,10.39,0,0,0,3.66.66A48.54,48.54,0,0,0,15,30a48.54,48.54,0,0,0,6.15-.17,10.39,10.39,0,0,0,3.66-.66,7,7,0,0,0,4.33-4.33,10.17,10.17,0,0,0,.66-3.66C29.8,19.49,30,19,30,15a48.54,48.54,0,0,0-.17-6.15,10.17,10.17,0,0,0-.66-3.66,6.4,6.4,0,0,0-1.67-2.66A6.4,6.4,0,0,0,24.81.86,10.17,10.17,0,0,0,21.15.2,48.54,48.54,0,0,0,15,0m0,7.32a7.52,7.52,0,0,0-7.65,7.4V15A7.65,7.65,0,1,0,15,7.35h0M15,20a4.9,4.9,0,0,1-5-4.81V15a4.9,4.9,0,0,1,4.81-5H15a4.9,4.9,0,0,1,5,4.81V15a4.9,4.9,0,0,1-4.81,5H15m8-14.8A1.83,1.83,0,1,0,24.81,7h0A1.84,1.84,0,0,0,23,5.19" fill="#f2f2f2"/></svg>