<svg xmlns="http://www.w3.org/2000/svg" viewBox="0 0 36.98 30"><title>Twitter</title><path d="M11.71,30A21.39,21.39,0,0,0,33.29,8.81V7.4A16.72,16.72,0,0,0,37,3.49a16.9,16.9,0,0,1-4.31,1.24A8,8,0,0,0,36,.62a19.19,19.19,0,0,1-4.73,1.84A7.35,7.35,0,0,0,25.68,0a7.71,7.71,0,0,0-7.6,7.6,3.86,3.86,0,0,0,.21,1.65,21.27,21.27,0,0,1-15.62-8,7.88,7.88,0,0,0-1,3.91,8.2,8.2,0,0,0,3.29,6.37,6.93,6.93,0,0,1-3.49-1h0a7.52,7.52,0,0,0,6.16,7.4,6.2,6.2,0,0,1-2.06.2,3.68,3.68,0,0,1-1.43-.2,7.78,7.78,0,0,0,7.19,5.34A15.48,15.48,0,0,1,1.85,26.5,5.51,5.51,0,0,1,0,26.3,19.44,19.44,0,0,0,11.71,30" fill="#f2f2f2"/></svg>